<?xml version="1.0" encoding="utf-8"?>
<!-- Generator: Adobe Illustrator 28.2.0, SVG Export Plug-In . SVG Version: 6.00 Build 0)  -->
<svg version="1.1"
	 id="svg4811" xmlns:dc="http://purl.org/dc/elements/1.1/" xmlns:cc="http://creativecommons.org/ns#" xmlns:rdf="http://www.w3.org/1999/02/22-rdf-syntax-ns#"
	 xmlns="http://www.w3.org/2000/svg" xmlns:xlink="http://www.w3.org/1999/xlink" x="0px" y="0px" viewBox="0 0 550 550"
	 style="enable-background:new 0 0 550 550;" xml:space="preserve">
<style type="text/css">
	.st0{fill-rule:evenodd;clip-rule:evenodd;fill:#008800;stroke:#000000;stroke-width:2;stroke-linecap:round;}
	.st1{fill:#000088;}
	.st2{font-family:'STKaitiSC-Regular';}
	.st3{font-size:90px;}
	.st4{font-family:'ArialMT';}
	.st5{font-size:60px;}
	.st6{fill:none;}
	.st7{fill-rule:evenodd;clip-rule:evenodd;fill:#AA0000;stroke:#AA0000;stroke-width:1.6;stroke-miterlimit:6.4;}
	.st8{fill-rule:evenodd;clip-rule:evenodd;fill:#AA0000;stroke:#AA0000;}
	.st9{display:none;}
	.st10{display:inline;}
	.st11{fill:none;stroke:#FF8800;stroke-opacity:0.5333;}
	
		.st12{fill-rule:evenodd;clip-rule:evenodd;fill:#FF8800;fill-opacity:0.5333;stroke:#FF8800;stroke-width:1.6;stroke-miterlimit:6.4;stroke-opacity:0.5333;}
	.st13{fill-rule:evenodd;clip-rule:evenodd;fill:#FF8800;fill-opacity:0.5333;stroke:#FF8800;stroke-opacity:0.5333;}
</style>
<g>
	<path id="rect5361" class="st0" d="M139.3,492.7l9.1-4.2c2.5-1.2,5.5-0.1,6.6,2.4l8.5,18.1c1.2,2.5,0.1,5.5-2.4,6.6l-9.1,4.2
		c-2.5,1.2-5.5,0.1-6.6-2.4l-8.5-18.1C135.7,496.9,136.8,493.9,139.3,492.7z"/>
	<path id="rect5363" class="st0" d="M157.4,484.3l9.1-4.2c2.5-1.2,5.5-0.1,6.6,2.4l8.5,18.1c1.2,2.5,0.1,5.5-2.4,6.6l-9.1,4.2
		c-2.5,1.2-5.5,0.1-6.6-2.4l-8.5-18.1C153.9,488.4,154.9,485.5,157.4,484.3z"/>
	<path id="rect5365" class="st0" d="M175.6,475.8l9.1-4.2c2.5-1.2,5.5-0.1,6.6,2.4l8.5,18.1c1.2,2.5,0.1,5.5-2.4,6.6l-9.1,4.2
		c-2.5,1.2-5.5,0.1-6.6-2.4l-8.5-18.1C172,480,173.1,477,175.6,475.8z"/>
	<path id="rect5367" class="st0" d="M193.7,467.4l9.1-4.2c2.5-1.2,5.5-0.1,6.6,2.4l8.5,18.1c1.2,2.5,0.1,5.5-2.4,6.6l-9.1,4.2
		c-2.5,1.2-5.5,0.1-6.6-2.4l-8.5-18.1C190.1,471.5,191.2,468.6,193.7,467.4z"/>
	<path id="rect5369" class="st0" d="M211.8,458.9l9.1-4.2c2.5-1.2,5.5-0.1,6.6,2.4l8.5,18.1c1.2,2.5,0.1,5.5-2.4,6.6l-9.1,4.2
		c-2.5,1.2-5.5,0.1-6.6-2.4l-8.5-18.1C208.2,463.1,209.3,460.1,211.8,458.9z"/>
	<path id="rect5371" class="st0" d="M229.9,450.5l9.1-4.2c2.5-1.2,5.5-0.1,6.6,2.4l8.5,18.1c1.2,2.5,0.1,5.5-2.4,6.6l-9.1,4.2
		c-2.5,1.2-5.5,0.1-6.6-2.4l-8.5-18.1C226.4,454.6,227.4,451.7,229.9,450.5z"/>
	<path id="rect5373" class="st0" d="M248.1,442l9.1-4.2c2.5-1.2,5.5-0.1,6.6,2.4l8.5,18.1c1.2,2.5,0.1,5.5-2.4,6.6l-9.1,4.2
		c-2.5,1.2-5.5,0.1-6.6-2.4l-8.5-18.1C244.5,446.2,245.6,443.2,248.1,442z"/>
	<path id="rect5375" class="st0" d="M266.2,433.6l9.1-4.2c2.5-1.2,5.5-0.1,6.6,2.4l8.5,18.1c1.2,2.5,0.1,5.5-2.4,6.6l-9.1,4.2
		c-2.5,1.2-5.5,0.1-6.6-2.4l-8.5-18.1C262.6,437.7,263.7,434.7,266.2,433.6z"/>
	<path id="rect5377" class="st0" d="M284.3,425.1l9.1-4.2c2.5-1.2,5.5-0.1,6.6,2.4l8.5,18.1c1.2,2.5,0.1,5.5-2.4,6.6l-9.1,4.2
		c-2.5,1.2-5.5,0.1-6.6-2.4l-8.5-18.1C280.7,429.3,281.8,426.3,284.3,425.1z"/>
	<path id="rect5379" class="st0" d="M302.4,416.7l9.1-4.2c2.5-1.2,5.5-0.1,6.6,2.4l8.5,18.1c1.2,2.5,0.1,5.5-2.4,6.6l-9.1,4.2
		c-2.5,1.2-5.5,0.1-6.6-2.4l-8.5-18.1C298.9,420.8,299.9,417.8,302.4,416.7z"/>
	<path id="rect5381" class="st0" d="M320.6,408.2l9.1-4.2c2.5-1.2,5.5-0.1,6.6,2.4l8.5,18.1c1.2,2.5,0.1,5.5-2.4,6.6l-9.1,4.2
		c-2.5,1.2-5.5,0.1-6.6-2.4l-8.5-18.1C317,412.4,318.1,409.4,320.6,408.2z"/>
	<path id="rect5383" class="st0" d="M338.7,399.8l9.1-4.2c2.5-1.2,5.5-0.1,6.6,2.4l8.5,18.1c1.2,2.5,0.1,5.5-2.4,6.6l-9.1,4.2
		c-2.5,1.2-5.5,0.1-6.6-2.4l-8.5-18.1C335.1,403.9,336.2,400.9,338.7,399.8z"/>
	<path id="rect5385" class="st0" d="M356.8,391.3l9.1-4.2c2.5-1.2,5.5-0.1,6.6,2.4l8.5,18.1c1.2,2.5,0.1,5.5-2.4,6.6l-9.1,4.2
		c-2.5,1.2-5.5,0.1-6.6-2.4l-8.5-18.1C353.2,395.5,354.3,392.5,356.8,391.3z"/>
	<path id="rect5387" class="st0" d="M375,382.9l9.1-4.2c2.5-1.2,5.5-0.1,6.6,2.4l8.5,18.1c1.2,2.5,0.1,5.5-2.4,6.6l-9.1,4.2
		c-2.5,1.2-5.5,0.1-6.6-2.4l-8.5-18.1C371.4,387,372.4,384,375,382.9z"/>
	<path id="rect5389" class="st0" d="M393.1,374.4l9.1-4.2c2.5-1.2,5.5-0.1,6.6,2.4l8.5,18.1c1.2,2.5,0.1,5.5-2.4,6.6l-9.1,4.2
		c-2.5,1.2-5.5,0.1-6.6-2.4l-8.5-18.1C389.5,378.6,390.6,375.6,393.1,374.4z"/>
	<path id="rect5391" class="st0" d="M411.2,366l9.1-4.2c2.5-1.2,5.5-0.1,6.6,2.4l8.5,18.1c1.2,2.5,0.1,5.5-2.4,6.6l-9.1,4.2
		c-2.5,1.2-5.5,0.1-6.6-2.4l-8.5-18.1C407.6,370.1,408.7,367.1,411.2,366z"/>
	<path id="rect5393" class="st0" d="M429.3,357.5l9.1-4.2c2.5-1.2,5.5-0.1,6.6,2.4l8.5,18.1c1.2,2.5,0.1,5.5-2.4,6.6l-9.1,4.2
		c-2.5,1.2-5.5,0.1-6.6-2.4l-8.5-18.1C425.7,361.7,426.8,358.7,429.3,357.5z"/>
	<path id="rect5395" class="st0" d="M447.5,349.1l9.1-4.2c2.5-1.2,5.5-0.1,6.6,2.4l8.5,18.1c1.2,2.5,0.1,5.5-2.4,6.6l-9.1,4.2
		c-2.5,1.2-5.5,0.1-6.6-2.4l-8.5-18.1C443.9,353.2,445,350.2,447.5,349.1z"/>
	<path id="rect5397" class="st0" d="M80.8,178l9.1-4.2c2.5-1.2,5.5-0.1,6.6,2.4l8.5,18.1c1.2,2.5,0.1,5.5-2.4,6.6l-9.1,4.2
		c-2.5,1.2-5.5,0.1-6.6-2.4l-8.5-18.1C77.2,182.1,78.3,179.1,80.8,178z"/>
	<path id="rect5399" class="st0" d="M98.9,169.5l9.1-4.2c2.5-1.2,5.5-0.1,6.6,2.4l8.5,18.1c1.2,2.5,0.1,5.5-2.4,6.6l-9.1,4.2
		c-2.5,1.2-5.5,0.1-6.6-2.4l-8.5-18.1C95.3,173.7,96.4,170.7,98.9,169.5z"/>
	<path id="rect5401" class="st0" d="M117.1,161.1l9.1-4.2c2.5-1.2,5.5-0.1,6.6,2.4l8.5,18.1c1.2,2.5,0.1,5.5-2.4,6.6l-9.1,4.2
		c-2.5,1.2-5.5,0.1-6.6-2.4l-8.5-18.1C113.5,165.2,114.6,162.2,117.1,161.1z"/>
	<path id="rect5403" class="st0" d="M135.2,152.6l9.1-4.2c2.5-1.2,5.5-0.1,6.6,2.4l8.5,18.1c1.2,2.5,0.1,5.5-2.4,6.6l-9.1,4.2
		c-2.5,1.2-5.5,0.1-6.6-2.4l-8.5-18.1C131.6,156.8,132.7,153.8,135.2,152.6z"/>
	<path id="rect5405" class="st0" d="M153.3,144.2l9.1-4.2c2.5-1.2,5.5-0.1,6.6,2.4l8.5,18.1c1.2,2.5,0.1,5.5-2.4,6.6l-9.1,4.2
		c-2.5,1.2-5.5,0.1-6.6-2.4l-8.5-18.1C149.7,148.3,150.8,145.3,153.3,144.2z"/>
	<path id="rect5407" class="st0" d="M171.4,135.7l9.1-4.2c2.5-1.2,5.5-0.1,6.6,2.4l8.5,18.1c1.2,2.5,0.1,5.5-2.4,6.6l-9.1,4.2
		c-2.5,1.2-5.5,0.1-6.6-2.4l-8.5-18.1C167.9,139.9,168.9,136.9,171.4,135.7z"/>
	<path id="rect5409" class="st0" d="M189.6,127.3l9.1-4.2c2.5-1.2,5.5-0.1,6.6,2.4l8.5,18.1c1.2,2.5,0.1,5.5-2.4,6.6l-9.1,4.2
		c-2.5,1.2-5.5,0.1-6.6-2.4l-8.5-18.1C186,131.4,187.1,128.4,189.6,127.3z"/>
	<path id="rect5411" class="st0" d="M207.7,118.8l9.1-4.2c2.5-1.2,5.5-0.1,6.6,2.4l8.5,18.1c1.2,2.5,0.1,5.5-2.4,6.6l-9.1,4.2
		c-2.5,1.2-5.5,0.1-6.6-2.4l-8.5-18.1C204.1,123,205.2,120,207.7,118.8z"/>
	<path id="rect5413" class="st0" d="M225.8,110.4l9.1-4.2c2.5-1.2,5.5-0.1,6.6,2.4l8.5,18.1c1.2,2.5,0.1,5.5-2.4,6.6l-9.1,4.2
		c-2.5,1.2-5.5,0.1-6.6-2.4l-8.5-18.1C222.2,114.5,223.3,111.5,225.8,110.4z"/>
	<path id="rect5415" class="st0" d="M243.9,101.9l9.1-4.2c2.5-1.2,5.5-0.1,6.6,2.4l8.5,18.1c1.2,2.5,0.1,5.5-2.4,6.6l-9.1,4.2
		c-2.5,1.2-5.5,0.1-6.6-2.4l-8.5-18.1C240.4,106.1,241.4,103.1,243.9,101.9z"/>
	<path id="rect5417" class="st0" d="M262.1,93.5l9.1-4.2c2.5-1.2,5.5-0.1,6.6,2.4l8.5,18.1c1.2,2.5,0.1,5.5-2.4,6.6l-9.1,4.2
		c-2.5,1.2-5.5,0.1-6.6-2.4l-8.5-18.1C258.5,97.6,259.6,94.6,262.1,93.5z"/>
	<path id="rect5419" class="st0" d="M280.2,85l9.1-4.2c2.5-1.2,5.5-0.1,6.6,2.4l8.5,18.1c1.2,2.5,0.1,5.5-2.4,6.6l-9.1,4.2
		c-2.5,1.2-5.5,0.1-6.6-2.4l-8.5-18.1C276.6,89.1,277.7,86.2,280.2,85z"/>
	<path id="rect5421" class="st0" d="M298.3,76.6l9.1-4.2c2.5-1.2,5.5-0.1,6.6,2.4l8.5,18.1c1.2,2.5,0.1,5.5-2.4,6.6l-9.1,4.2
		c-2.5,1.2-5.5,0.1-6.6-2.4l-8.5-18.1C294.7,80.7,295.8,77.7,298.3,76.6z"/>
	<path id="rect5423" class="st0" d="M316.4,68.1l9.1-4.2c2.5-1.2,5.5-0.1,6.6,2.4l8.5,18.1c1.2,2.5,0.1,5.5-2.4,6.6l-9.1,4.2
		c-2.5,1.2-5.5,0.1-6.6-2.4L314,74.7C312.9,72.2,313.9,69.3,316.4,68.1z"/>
	<path id="rect5425" class="st0" d="M334.6,59.7l9.1-4.2c2.5-1.2,5.5-0.1,6.6,2.4l8.5,18.1c1.2,2.5,0.1,5.5-2.4,6.6l-9.1,4.2
		c-2.5,1.2-5.5,0.1-6.6-2.4l-8.5-18.1C331,63.8,332.1,60.8,334.6,59.7z"/>
	<path id="rect5427" class="st0" d="M352.7,51.2l9.1-4.2c2.5-1.2,5.5-0.1,6.6,2.4l8.5,18.1c1.2,2.5,0.1,5.5-2.4,6.6l-9.1,4.2
		c-2.5,1.2-5.5,0.1-6.6-2.4l-8.5-18.1C349.1,55.3,350.2,52.4,352.7,51.2z"/>
	<path id="rect5429" class="st0" d="M370.8,42.7l9.1-4.2c2.5-1.2,5.5-0.1,6.6,2.4l8.5,18.1c1.2,2.5,0.1,5.5-2.4,6.6l-9.1,4.2
		c-2.5,1.2-5.5,0.1-6.6-2.4l-8.5-18.1C367.2,46.9,368.3,43.9,370.8,42.7z"/>
	<path id="rect5431" class="st0" d="M389,34.3l9.1-4.2c2.5-1.2,5.5-0.1,6.6,2.4l8.5,18.1c1.2,2.5,0.1,5.5-2.4,6.6l-9.1,4.2
		c-2.5,1.2-5.5,0.1-6.6-2.4l-8.5-18.1C385.4,38.4,386.4,35.5,389,34.3z"/>
	<path id="rect5433" class="st0" d="M492.7,410.6l-4.2-9.1c-1.2-2.5-0.1-5.5,2.4-6.6l18.1-8.5c2.5-1.2,5.5-0.1,6.6,2.4l4.2,9.1
		c1.2,2.5,0.1,5.5-2.4,6.6l-18.1,8.5C496.9,414.2,493.9,413.1,492.7,410.6z"/>
	<path id="rect5435" class="st0" d="M484.3,392.5l-4.2-9.1c-1.2-2.5-0.1-5.5,2.4-6.6l18.1-8.5c2.5-1.2,5.5-0.1,6.6,2.4l4.2,9.1
		c1.2,2.5,0.1,5.5-2.4,6.6l-18.1,8.5C488.4,396.1,485.4,395,484.3,392.5z"/>
	<path id="rect5437" class="st0" d="M475.8,374.4l-4.2-9.1c-1.2-2.5-0.1-5.5,2.4-6.6l18.1-8.5c2.5-1.2,5.5-0.1,6.6,2.4l4.2,9.1
		c1.2,2.5,0.1,5.5-2.4,6.6l-18.1,8.5C480,378,477,376.9,475.8,374.4z"/>
	<path id="rect5439" class="st0" d="M467.4,356.3l-4.2-9.1c-1.2-2.5-0.1-5.5,2.4-6.6l18.1-8.5c2.5-1.2,5.5-0.1,6.6,2.4l4.2,9.1
		c1.2,2.5,0.1,5.5-2.4,6.6l-18.1,8.5C471.5,359.9,468.6,358.8,467.4,356.3z"/>
	<path id="rect5441" class="st0" d="M458.9,338.2l-4.2-9.1c-1.2-2.5-0.1-5.5,2.4-6.6l18.1-8.5c2.5-1.2,5.5-0.1,6.6,2.4l4.2,9.1
		c1.2,2.5,0.1,5.5-2.4,6.6l-18.1,8.5C463.1,341.8,460.1,340.7,458.9,338.2z"/>
	<path id="rect5443" class="st0" d="M450.5,320.1l-4.2-9.1c-1.2-2.5-0.1-5.5,2.4-6.6l18.1-8.5c2.5-1.2,5.5-0.1,6.6,2.4l4.2,9.1
		c1.2,2.5,0.1,5.5-2.4,6.6l-18.1,8.5C454.6,323.6,451.7,322.6,450.5,320.1z"/>
	<path id="rect5445" class="st0" d="M442,301.9l-4.2-9.1c-1.2-2.5-0.1-5.5,2.4-6.6l18.1-8.5c2.5-1.2,5.5-0.1,6.6,2.4l4.2,9.1
		c1.2,2.5,0.1,5.5-2.4,6.6l-18.1,8.5C446.2,305.5,443.2,304.4,442,301.9z"/>
	<path id="rect5447" class="st0" d="M433.6,283.8l-4.2-9.1c-1.2-2.5-0.1-5.5,2.4-6.6l18.1-8.5c2.5-1.2,5.5-0.1,6.6,2.4l4.2,9.1
		c1.2,2.5,0.1,5.5-2.4,6.6l-18.1,8.5C437.7,287.4,434.7,286.3,433.6,283.8z"/>
	<path id="rect5449" class="st0" d="M425.1,265.7l-4.2-9.1c-1.2-2.5-0.1-5.5,2.4-6.6l18.1-8.5c2.5-1.2,5.5-0.1,6.6,2.4l4.2,9.1
		c1.2,2.5,0.1,5.5-2.4,6.6l-18.1,8.5C429.3,269.3,426.3,268.2,425.1,265.7z"/>
	<path id="rect5451" class="st0" d="M416.7,247.6l-4.2-9.1c-1.2-2.5-0.1-5.5,2.4-6.6l18.1-8.5c2.5-1.2,5.5-0.1,6.6,2.4l4.2,9.1
		c1.2,2.5,0.1,5.5-2.4,6.6l-18.1,8.5C420.8,251.1,417.8,250.1,416.7,247.6z"/>
	<path id="rect5453" class="st0" d="M408.2,229.4l-4.2-9.1c-1.2-2.5-0.1-5.5,2.4-6.6l18.1-8.5c2.5-1.2,5.5-0.1,6.6,2.4l4.2,9.1
		c1.2,2.5,0.1,5.5-2.4,6.6l-18.1,8.5C412.4,233,409.4,231.9,408.2,229.4z"/>
	<path id="rect5455" class="st0" d="M399.8,211.3l-4.2-9.1c-1.2-2.5-0.1-5.5,2.4-6.6l18.1-8.5c2.5-1.2,5.5-0.1,6.6,2.4l4.2,9.1
		c1.2,2.5,0.1,5.5-2.4,6.6l-18.1,8.5C403.9,214.9,400.9,213.8,399.8,211.3z"/>
	<path id="rect5457" class="st0" d="M391.3,193.2l-4.2-9.1c-1.2-2.5-0.1-5.5,2.4-6.6l18.1-8.5c2.5-1.2,5.5-0.1,6.6,2.4l4.2,9.1
		c1.2,2.5,0.1,5.5-2.4,6.6l-18.1,8.5C395.5,196.8,392.5,195.7,391.3,193.2z"/>
	<path id="rect5459" class="st0" d="M382.9,175.1l-4.2-9.1c-1.2-2.5-0.1-5.5,2.4-6.6l18.1-8.5c2.5-1.2,5.5-0.1,6.6,2.4l4.2,9.1
		c1.2,2.5,0.1,5.5-2.4,6.6l-18.1,8.5C387,178.6,384,177.6,382.9,175.1z"/>
	<path id="rect5461" class="st0" d="M374.4,156.9l-4.2-9.1c-1.2-2.5-0.1-5.5,2.4-6.6l18.1-8.5c2.5-1.2,5.5-0.1,6.6,2.4l4.2,9.1
		c1.2,2.5,0.1,5.5-2.4,6.6l-18.1,8.5C378.6,160.5,375.6,159.4,374.4,156.9z"/>
	<path id="rect5463" class="st0" d="M366,138.8l-4.2-9.1c-1.2-2.5-0.1-5.5,2.4-6.6l18.1-8.5c2.5-1.2,5.5-0.1,6.6,2.4l4.2,9.1
		c1.2,2.5,0.1,5.5-2.4,6.6l-18.1,8.5C370.1,142.4,367.1,141.3,366,138.8z"/>
	<path id="rect5465" class="st0" d="M357.5,120.7l-4.2-9.1c-1.2-2.5-0.1-5.5,2.4-6.6l18.1-8.5c2.5-1.2,5.5-0.1,6.6,2.4l4.2,9.1
		c1.2,2.5,0.1,5.5-2.4,6.6l-18.1,8.5C361.7,124.3,358.7,123.2,357.5,120.7z"/>
	<path id="rect5467" class="st0" d="M349.1,102.5l-4.2-9.1c-1.2-2.5-0.1-5.5,2.4-6.6l18.1-8.5c2.5-1.2,5.5-0.1,6.6,2.4l4.2,9.1
		c1.2,2.5,0.1,5.5-2.4,6.6l-18.1,8.5C353.2,106.1,350.2,105.1,349.1,102.5z"/>
	<path id="rect5469" class="st0" d="M178,469.2l-4.2-9.1c-1.2-2.5-0.1-5.5,2.4-6.6l18.1-8.5c2.5-1.2,5.5-0.1,6.6,2.4l4.2,9.1
		c1.2,2.5,0.1,5.5-2.4,6.6l-18.1,8.5C182.1,472.8,179.2,471.7,178,469.2z"/>
	<path id="rect5471" class="st0" d="M169.5,451.1l-4.2-9.1c-1.2-2.5-0.1-5.5,2.4-6.6l18.1-8.5c2.5-1.2,5.5-0.1,6.6,2.4l4.2,9.1
		c1.2,2.5,0.1,5.5-2.4,6.6l-18.1,8.5C173.7,454.7,170.7,453.6,169.5,451.1z"/>
	<path id="rect5473" class="st0" d="M161.1,432.9l-4.2-9.1c-1.2-2.5-0.1-5.5,2.4-6.6l18.1-8.5c2.5-1.2,5.5-0.1,6.6,2.4l4.2,9.1
		c1.2,2.5,0.1,5.5-2.4,6.6l-18.1,8.5C165.2,436.5,162.2,435.4,161.1,432.9z"/>
	<path id="rect5475" class="st0" d="M152.6,414.8l-4.2-9.1c-1.2-2.5-0.1-5.5,2.4-6.6l18.1-8.5c2.5-1.2,5.5-0.1,6.6,2.4l4.2,9.1
		c1.2,2.5,0.1,5.5-2.4,6.6l-18.1,8.5C156.8,418.4,153.8,417.3,152.6,414.8z"/>
	<path id="rect5477" class="st0" d="M144.2,396.7l-4.2-9.1c-1.2-2.5-0.1-5.5,2.4-6.6l18.1-8.5c2.5-1.2,5.5-0.1,6.6,2.4l4.2,9.1
		c1.2,2.5,0.1,5.5-2.4,6.6l-18.1,8.5C148.3,400.3,145.3,399.2,144.2,396.7z"/>
	<path id="rect5479" class="st0" d="M135.7,378.6l-4.2-9.1c-1.2-2.5-0.1-5.5,2.4-6.6l18.1-8.5c2.5-1.2,5.5-0.1,6.6,2.4l4.2,9.1
		c1.2,2.5,0.1,5.5-2.4,6.6l-18.1,8.5C139.9,382.2,136.9,381.1,135.7,378.6z"/>
	<path id="rect5481" class="st0" d="M127.3,360.4l-4.2-9.1c-1.2-2.5-0.1-5.5,2.4-6.6l18.1-8.5c2.5-1.2,5.5-0.1,6.6,2.4l4.2,9.1
		c1.2,2.5,0.1,5.5-2.4,6.6l-18.1,8.5C131.4,364,128.4,362.9,127.3,360.4z"/>
	<path id="rect5483" class="st0" d="M118.8,342.3l-4.2-9.1c-1.2-2.5-0.1-5.5,2.4-6.6l18.1-8.5c2.5-1.2,5.5-0.1,6.6,2.4l4.2,9.1
		c1.2,2.5,0.1,5.5-2.4,6.6l-18.1,8.5C123,345.9,120,344.8,118.8,342.3z"/>
	<path id="rect5485" class="st0" d="M110.4,324.2l-4.2-9.1c-1.2-2.5-0.1-5.5,2.4-6.6l18.1-8.5c2.5-1.2,5.5-0.1,6.6,2.4l4.2,9.1
		c1.2,2.5,0.1,5.5-2.4,6.6l-18.1,8.5C114.5,327.8,111.5,326.7,110.4,324.2z"/>
	<path id="rect5487" class="st0" d="M101.9,306.1l-4.2-9.1c-1.2-2.5-0.1-5.5,2.4-6.6l18.1-8.5c2.5-1.2,5.5-0.1,6.6,2.4l4.2,9.1
		c1.2,2.5,0.1,5.5-2.4,6.6l-18.1,8.5C106.1,309.6,103.1,308.6,101.9,306.1z"/>
	<path id="rect5489" class="st0" d="M93.5,287.9l-4.2-9.1c-1.2-2.5-0.1-5.5,2.4-6.6l18.1-8.5c2.5-1.2,5.5-0.1,6.6,2.4l4.2,9.1
		c1.2,2.5,0.1,5.5-2.4,6.6l-18.1,8.5C97.6,291.5,94.6,290.4,93.5,287.9z"/>
	<path id="rect5491" class="st0" d="M85,269.8l-4.2-9.1c-1.2-2.5-0.1-5.5,2.4-6.6l18.1-8.5c2.5-1.2,5.5-0.1,6.6,2.4l4.2,9.1
		c1.2,2.5,0.1,5.5-2.4,6.6l-18.1,8.5C89.1,273.4,86.2,272.3,85,269.8z"/>
	<path id="rect5493" class="st0" d="M76.6,251.7l-4.2-9.1c-1.2-2.5-0.1-5.5,2.4-6.6l18.1-8.5c2.5-1.2,5.5-0.1,6.6,2.4l4.2,9.1
		c1.2,2.5,0.1,5.5-2.4,6.6l-18.1,8.5C80.7,255.3,77.7,254.2,76.6,251.7z"/>
	<path id="rect5495" class="st0" d="M68.1,233.6l-4.2-9.1c-1.2-2.5-0.1-5.5,2.4-6.6l18.1-8.5c2.5-1.2,5.5-0.1,6.6,2.4l4.2,9.1
		c1.2,2.5,0.1,5.5-2.4,6.6L74.7,236C72.2,237.1,69.3,236.1,68.1,233.6z"/>
	<path id="rect5497" class="st0" d="M59.7,215.4l-4.2-9.1c-1.2-2.5-0.1-5.5,2.4-6.6l18.1-8.5c2.5-1.2,5.5-0.1,6.6,2.4l4.2,9.1
		c1.2,2.5,0.1,5.5-2.4,6.6l-18.1,8.5C63.8,219,60.8,217.9,59.7,215.4z"/>
	<path id="rect5499" class="st0" d="M51.2,197.3l-4.2-9.1c-1.2-2.5-0.1-5.5,2.4-6.6l18.1-8.5c2.5-1.2,5.5-0.1,6.6,2.4l4.2,9.1
		c1.2,2.5,0.1,5.5-2.4,6.6l-18.1,8.5C55.3,200.9,52.4,199.8,51.2,197.3z"/>
	<path id="rect5501" class="st0" d="M42.7,179.2l-4.2-9.1c-1.2-2.5-0.1-5.5,2.4-6.6l18.1-8.5c2.5-1.2,5.5-0.1,6.6,2.4l4.2,9.1
		c1.2,2.5,0.1,5.5-2.4,6.6l-18.1,8.5C46.9,182.8,43.9,181.7,42.7,179.2z"/>
	<path id="rect5503" class="st0" d="M34.3,161.1l-4.2-9.1c-1.2-2.5-0.1-5.5,2.4-6.6l18.1-8.5c2.5-1.2,5.5-0.1,6.6,2.4l4.2,9.1
		c1.2,2.5,0.1,5.5-2.4,6.6l-18.1,8.5C38.4,164.6,35.5,163.6,34.3,161.1z"/>
</g>
<text transform="matrix(1 0 0 1 6.75 370.0022)" class="st1 st2 st3">北</text>
<text transform="matrix(1 0 0 1 147.2036 86.7375)" class="st1 st2 st3">西</text>
<text transform="matrix(1 0 0 1 458.3259 186.4353)" class="st1 st2 st3">南</text>
<text transform="matrix(1 0 0 1 304.821 520.4067)" class="st1 st2 st3">東</text>
<g>
	<text transform="matrix(1 0 0 1 283.8154 400.0022)" class="st4 st5">1</text>
	<text transform="matrix(1 0 0 1 363.8154 270.0022)" class="st4 st5">2</text>
	<text transform="matrix(1 0 0 1 233.8154 200.0022)" class="st4 st5">3</text>
	<text transform="matrix(1 0 0 1 153.8154 320.0022)" class="st4 st5">4</text>
</g>
<path class="st6" d=""/>
<path id="path6393" class="st7" d="M382.7,295l8,8l-8-28l-8,28L382.7,295z"/>
<path id="path6383" marker-start="url(#marker6391)" class="st8" d="M328.8,661.4"/>
<path class="st6" d=""/>
<path id="path6979" class="st7" d="M295,173.9l8-8l-28,8l28,8L295,173.9z"/>
<path id="path6385" marker-start="url(#marker6977)" class="st8" d="M368.3,799.6"/>
<path class="st6" d=""/>
<path id="path6755" class="st7" d="M167.3,255l-8-8l8,28l8-28L167.3,255z"/>
<path id="path6387" marker-start="url(#marker6753)" class="st8" d="M221.2,836.6"/>
<path class="st6" d=""/>
<path id="path6861" class="st7" d="M255,376.1l-8,8l28-8l-28-8L255,376.1z"/>
<path id="path6389" marker-start="url(#marker6859)" class="st8" d="M181.7,698.4"/>
<g id="layer3" class="st9">
	<g class="st10">
		<path id="path5521" class="st11" d="M0,550h550V0H0V550z"/>
		<path id="path5525" class="st11" d="M0,275L275,0l275,275L275,550L0,275z"/>
		<path id="path5529" class="st11" d="M-64.9,433.5l679.7-317"/>
		<path id="path5531" class="st11" d="M433.5,614.8l-317-679.7"/>
		<path id="path5527" class="st11" d="M0,275h550L275,0v550"/>
	</g>
	<g class="st10">
		<path class="st6" d=""/>
		<path id="path6187" class="st12" d="M382.7,295l8,8l-8-28l-8,28L382.7,295z"/>
		<path id="path5555" marker-start="url(#marker6185)" class="st13" d="M328.8,661.4"/>
		<g>
			<path class="st6" d=""/>
			<path id="path5567" class="st12" d="M295,173.9l8-8l-28,8l28,8L295,173.9z"/>
			<path id="path5557" marker-start="url(#Arrow1Lstart)" class="st13" d="M368.3,799.6"/>
			<path class="st6" d=""/>
			<path id="path6309" class="st12" d="M167.3,255l-8-8l8,28l8-28L167.3,255z"/>
			<path id="path5559" marker-start="url(#marker6307)" class="st13" d="M221.2,836.6"/>
			<path class="st6" d=""/>
			<path id="path6245" class="st12" d="M255,376.1l-8,8l28-8l-28-8L255,376.1z"/>
			<path id="path5561" marker-start="url(#marker6243)" class="st13" d="M181.7,698.4"/>
		</g>
	</g>
</g>
</svg>
